HIERARCHY
ROOT Hips
{
  OFFSET -4.35178 90.3298 111.633
  CHANNELS 6 Xposition Yposition Zposition Zrotation Xrotation Yrotation
  JOINT LeftUpLeg
  {
    OFFSET 0.103456 1.85784 10.5485
    CHANNELS 6 Xposition Yposition Zposition Zrotation Xrotation Yrotation
    JOINT LeftLeg
    {
      OFFSET 43.5 -4.2e-05 0
      CHANNELS 6 Xposition Yposition Zposition Zrotation Xrotation Yrotation
      JOINT LeftFoot
      {
        OFFSET 42.3722 1.9e-05 0
        CHANNELS 6 Xposition Yposition Zposition Zrotation Xrotation Yrotation
        JOINT LeftToe
        {
          OFFSET 17.3 0 0
          CHANNELS 6 Xposition Yposition Zposition Zrotation Xrotation Yrotation
          End Site
          {
            OFFSET 0 0 0
          }
        }
      }
    }
  }
  JOINT RightUpLeg
  {
    OFFSET 0.103456 1.85782 -10.5485
    CHANNELS 6 Xposition Yposition Zposition Zrotation Xrotation Yrotation
    JOINT RightLeg
    {
      OFFSET 43.5 -2.7e-05 0
      CHANNELS 6 Xposition Yposition Zposition Zrotation Xrotation Yrotation
      JOINT RightFoot
      {
        OFFSET 42.3723 0 0
        CHANNELS 6 Xposition Yposition Zposition Zrotation Xrotation Yrotation
        JOINT RightToe
        {
          OFFSET 17.3 0 1.7e-05
          CHANNELS 6 Xposition Yposition Zposition Zrotation Xrotation Yrotation
          End Site
          {
            OFFSET 0 0 0
          }
        }
      }
    }
  }
  JOINT Spine
  {
    OFFSET 6.90197 -2.60373 0
    CHANNELS 6 Xposition Yposition Zposition Zrotation Xrotation Yrotation
    JOINT Spine1
    {
      OFFSET 12.5881 0 0
      CHANNELS 6 Xposition Yposition Zposition Zrotation Xrotation Yrotation
      JOINT Spine2
      {
        OFFSET 12.3432 -1.8e-05 0
        CHANNELS 6 Xposition Yposition Zposition Zrotation Xrotation Yrotation
        JOINT Neck
        {
          OFFSET 25.8329 2.3e-05 0
          CHANNELS 6 Xposition Yposition Zposition Zrotation Xrotation Yrotation
          JOINT Head
          {
            OFFSET 11.7666 0 0
            CHANNELS 6 Xposition Yposition Zposition Zrotation Xrotation Yrotation
            End Site
            {
              OFFSET 0 0 0
            }
          }
        }
        JOINT LeftShoulder
        {
          OFFSET 19.7459 -1.48035 6.0001
          CHANNELS 6 Xposition Yposition Zposition Zrotation Xrotation Yrotation
          JOINT LeftArm
          {
            OFFSET 11.2841 1.8e-05 -2e-05
            CHANNELS 6 Xposition Yposition Zposition Zrotation Xrotation Yrotation
            JOINT LeftForeArm
            {
              OFFSET 33 -1.3e-05 1.9e-05
              CHANNELS 6 Xposition Yposition Zposition Zrotation Xrotation Yrotation
              JOINT LeftHand
              {
                OFFSET 25.2 3.2e-05 1.1e-05
                CHANNELS 6 Xposition Yposition Zposition Zrotation Xrotation Yrotation
                End Site
                {
                  OFFSET 0 0 0
                }
              }
            }
          }
        }
        JOINT RightShoulder
        {
          OFFSET 19.7461 -1.48036 -6.00008
          CHANNELS 6 Xposition Yposition Zposition Zrotation Xrotation Yrotation
          JOINT RightArm
          {
            OFFSET 11.2841 0 0
            CHANNELS 6 Xposition Yposition Zposition Zrotation Xrotation Yrotation
            JOINT RightForeArm
            {
              OFFSET 33.0001 1.6e-05 0
              CHANNELS 6 Xposition Yposition Zposition Zrotation Xrotation Yrotation
              JOINT RightHand
              {
                OFFSET 25.1998 0.000123 0.000432
                CHANNELS 6 Xposition Yposition Zposition Zrotation Xrotation Yrotation
                End Site
                {
                  OFFSET 0 0 0
                }
              }
            }
          }
        }
      }
    }
  }
}
MOTION
Frames:	9
Frame Time:	0.0333333
48.1613 79.394 104.359 -34.33 65.8228 134.092 0.103456 1.85784 10.5485 -26.7768 15.6734 -175.619 43.5 -4.2e-05 1e-05 -51.2306 -1.84138 17.9442 42.3722 1.9e-05 0 71.1608 8.95101 -5.49943 17.3 7.10543e-15 3e-06 21.4546 -1e-06 0.003093 0.103456 1.85782 -10.5485 -22.3137 -10.4521 -173.904 43.5 -2.7e-05 4e-06 -62.1106 13.3289 -16.1561 42.3723 0 1e-05 84.7729 -3.59898 -0.978206 17.3 -6e-06 1.7e-05 21.4546 -1.9e-05 -0.003116 6.90197 -2.60373 -3e-06 9.32976 -1.25174 -0.0303047 12.5881 1e-05 8e-06 8.67793 -2.39185 0.188726 12.3432 -1.8e-05 -5e-06 8.39704 -2.24653 0.352335 25.8329 2.3e-05 7e-06 5.79342 -1.30671 -3.8211 11.7666 -8e-06 -6e-06 -7.48669 -4.93884 12.1164 19.7459 -1.48035 6.0001 -178.187 -11.2251 -80.5594 11.2841 1.8e-05 -2e-05 -3.12483 -18.5994 61.644 33 -1.3e-05 1.9e-05 -50.8887 19.3158 -10.4085 25.2 3.2e-05 1.1e-05 -31.8298 30.0156 4.21909 19.7461 -1.48036 -6.00008 -175.046 -3.36393 67.2838 11.2841 0 -1e-06 -31.6143 -16.1948 -36.5362 33.0001 1.6e-05 -1e-06 -83.6459 -1.00471 22.4119 25.1998 0.000123 0.000432 2.38037 -19.2127 15.1849 
51.4044 80.261 107.907 -27.1073 70.2032 126.985 0.103456 1.85784 10.5485 -23.7434 9.92335 -177.368 43.5 -4.2e-05 1e-05 -37.4784 2.8491 16.2032 42.3722 1.9e-05 0 67.7497 10.5954 -10.5616 17.3 0 3e-06 21.4546 -1e-06 0.003093 0.103456 1.85782 -10.5485 -22.908 -7.87652 -175.736 43.5 -2.7e-05 4e-06 -65.1347 12.3619 -14.1861 42.3723 0 1e-05 85.8865 -4.0038 0.170212 17.3 -6e-06 1.7e-05 21.4546 -1.9e-05 -0.003116 6.90197 -2.60373 -3e-06 8.87008 -0.758078 -0.219907 12.5881 1e-05 8e-06 7.74286 -1.45171 -0.283418 12.3432 -1.8e-05 -5e-06 7.4478 -1.35172 -0.178175 25.8329 2.3e-05 7e-06 6.8836 -2.64249 -3.12025 11.7666 -8e-06 -6e-06 -7.10351 -6.65084 13.5471 19.7459 -1.48035 6.0001 -178.317 -9.40214 -81.7545 11.2841 1.8e-05 -2e-05 -9.81744 -13.8594 60.142 33 -1.3e-05 1.9e-05 -47.7103 21.2785 -9.68317 25.2 3.2e-05 1.1e-05 -29.9696 28.4303 6.19769 19.7461 -1.48036 -6.00008 -177.435 -5.89398 72.0519 11.2841 1.42109e-14 -1e-06 -41.6451 -17.191 -40.7533 33.0001 1.6e-05 -1e-06 -87.7913 -4.89471 23.7014 25.1998 0.000123 0.000432 0.216801 -19.4799 16.1281 
54.7423 81.0931 111.298 -9.25789 74.2111 109.798 0.103456 1.85784 10.5485 -20.1488 5.99971 -177.641 43.5 -4.2e-05 1e-05 -30.5215 3.9753 12.7855 42.3722 1.9e-05 -1.42109e-14 63.3505 11.4578 -9.79408 17.3 -7.10543e-15 3e-06 21.4546 -1e-06 0.003093 0.103456 1.85782 -10.5485 -23.9632 -4.90501 -178.364 43.5 -2.7e-05 4e-06 -68.5777 10.3279 -12.5905 42.3723 0 1e-05 85.5601 -5.39181 2.45515 17.3 -6e-06 1.7e-05 21.4546 -1.9e-05 -0.003116 6.90197 -2.60373 -3e-06 8.37546 -0.0517825 -0.518981 12.5881 1e-05 8e-06 6.73955 -0.101811 -1.00021 12.3432 -1.8e-05 -5e-06 6.42544 -0.0641429 -0.978347 25.8329 2.3e-05 7e-06 8.00302 -4.15029 -2.78723 11.7666 -8e-06 -6e-06 -5.87399 -7.88551 14.4649 19.7459 -1.48035 6.0001 -177.638 -7.64974 -82.601 11.2841 1.8e-05 -2e-05 -13.8238 -9.67052 59.5897 33 -1.3e-05 1.9e-05 -47.013 19.449 -8.42124 25.2 3.2e-05 1.1e-05 -29.0196 28.6701 6.17032 19.7461 -1.48036 -6.00008 -179.72 -8.0331 76.7634 11.2841 1.42109e-14 -1e-06 -49.4781 -14.689 -44.8196 33.0001 1.6e-05 -1e-06 -91.7713 -9.42342 24.4921 25.1998 0.000123 0.000432 -1.04079 -15.857 13.793 
57.9652 81.5541 114.082 12.3933 75.7176 88.4241 0.103456 1.85784 10.5485 -17.6428 8.32866 -175.086 43.5 -4.2e-05 1e-05 -29.0426 2.0415 7.87195 42.3722 1.9e-05 0 64.861 8.94212 -9.22891 17.3 -7.10543e-15 3e-06 21.4546 -1e-06 0.003093 0.103456 1.85782 -10.5485 -25.4538 -2.57879 178.149 43.5 -2.7e-05 4e-06 -71.8733 7.32945 -10.6954 42.3723 0 1e-05 84.8272 -6.64121 5.63167 17.3 -6e-06 1.7e-05 21.4546 -1.9e-05 -0.003116 6.90197 -2.60373 -3e-06 7.90998 0.354745 -0.573296 12.5881 1e-05 8e-06 5.80393 0.693994 -1.17194 12.3432 -1.8e-05 -5e-06 5.47865 0.705227 -1.2001 25.8329 2.3e-05 7e-06 9.43583 -5.45691 -2.31519 11.7666 -8e-06 -6e-06 -6.60058 -8.67302 14.7008 19.7459 -1.48035 6.0001 -176.348 -6.08249 -82.938 11.2841 1.8e-05 -2e-05 -14.1599 -8.02409 60.9234 33 -1.3e-05 1.9e-05 -46.693 18.0282 -8.09475 25.2 3.2e-05 1.1e-05 -28.3696 28.8175 5.814 19.7461 -1.48036 -6.00008 178.659 -9.35549 80.3516 11.2841 -1.42109e-14 -1e-06 -53.4553 -9.75235 -46.7981 33.0001 1.6e-05 -1e-06 -95.486 -15.162 23.7707 25.1998 0.000123 0.000432 -1.19095 -7.21801 7.25143 
60.9114 82.1309 117.122 34.4662 74.7383 66.1614 0.103456 1.85784 10.5485 -16.012 10.3497 -173.326 43.5 -4.2e-05 1e-05 -30.9944 0.0624883 5.41387 42.3722 1.9e-05 0 69.5156 5.68344 -10.2244 17.3 -3.55271e-15 3e-06 21.4546 -1e-06 0.003093 0.103456 1.85782 -10.5485 -26.3073 0.00941294 175.264 43.5 -2.7e-05 4e-06 -73.7914 3.86121 -9.15692 42.3723 0 1e-05 83.6876 -7.85974 9.25404 17.3 -6e-06 1.7e-05 21.4546 -1.9e-05 -0.003116 6.90197 -2.60373 -3e-06 7.49187 0.51668 -0.433927 12.5881 1e-05 8e-06 4.96423 1.03185 -0.916067 12.3432 -1.8e-05 -5e-06 4.63364 1.04554 -0.966775 25.8329 2.3e-05 7e-06 10.442 -6.05216 -1.6402 11.7666 -8e-06 -6e-06 -7.82824 -9.17614 15.0223 19.7459 -1.48035 6.0001 -175.363 -6.01577 -82.7954 11.2841 1.8e-05 -2e-05 -12.1494 -8.04964 63.1209 33 -1.3e-05 1.9e-05 -45.2579 15.1571 -7.8681 25.2 3.2e-05 1.1e-05 -26.0883 28.2634 5.57449 19.7461 -1.48036 -6.00008 178.493 -9.5072 81.5507 11.2841 1.42109e-14 -1e-06 -54.059 -4.87593 -47.096 33.0001 1.6e-05 -1e-06 -99.9113 -22.2265 20.2538 25.1998 0.000123 0.000432 -1.70696 2.36144 0.122619 
63.2584 83.135 119.475 48.6782 72.7364 51.7859 0.103456 1.85784 10.5485 -16.4895 14.2792 -171.584 43.5 -4.2e-05 1e-05 -34.7962 -1.0292 3.11149 42.3722 1.9e-05 0 71.1514 6.60703 -9.99195 17.3 -7.10543e-15 3e-06 21.4546 -1e-06 0.003093 0.103456 1.85782 -10.5485 -27.2016 2.02259 172.854 43.5 -2.7e-05 4e-06 -74.2112 0.588696 -7.63405 42.3723 0 1e-05 80.1946 -9.60207 11.1745 17.3 -6e-06 1.7e-05 21.4546 -1.9e-05 -0.003116 6.90197 -2.60373 -3e-06 7.29894 0.228168 -0.414516 12.5881 1e-05 8e-06 4.58205 0.456163 -0.835567 12.3432 -1.8e-05 -5e-06 4.25946 0.470206 -0.851503 25.8329 2.3e-05 7e-06 10.8706 -5.97202 -0.988778 11.7666 -8e-06 -6e-06 -8.76271 -9.52413 15.5947 19.7459 -1.48035 6.0001 -175.231 -6.40256 -83.0117 11.2841 1.8e-05 -2e-05 -9.05257 -9.33908 65.3656 33 -1.3e-05 1.9e-05 -41.8889 12.1051 -7.8782 25.2 3.2e-05 1.1e-05 -22.7746 27.1491 5.68238 19.7461 -1.48036 -6.00008 179.03 -9.41724 81.2564 11.2841 0 -1e-06 -53.0729 -0.43544 -47.2233 33.0001 1.6e-05 -1e-06 -105.017 -26.9304 15.0156 25.1998 0.000123 0.000432 -2.53299 8.04856 -3.40762 
65.1656 84.4235 121.812 61.0986 68.9359 39.0051 0.103456 1.85784 10.5485 -14.4276 17.0233 -170.173 43.5 -4.2e-05 1e-05 -34.9578 -2.32602 0.61248 42.3722 1.9e-05 1.42109e-14 72.563 6.17301 -9.07853 17.3 0 3e-06 21.4546 -1e-06 0.003093 0.103456 1.85782 -10.5485 -27.9305 3.48384 172.423 43.5 -2.7e-05 4e-06 -73.6762 -0.576891 -7.20521 42.3723 0 1e-05 76.8324 -8.90357 11.2084 17.3 -6e-06 1.7e-05 21.4546 -1.9e-05 -0.003116 6.90197 -2.60373 -3e-06 7.32734 0.113379 -0.434303 12.5881 1e-05 8e-06 4.64064 0.224774 -0.858751 12.3432 -1.8e-05 -5e-06 4.32149 0.238729 -0.860246 25.8329 2.3e-05 7e-06 10.8154 -5.84282 -0.534301 11.7666 -8e-06 -6e-06 -8.86544 -9.50221 15.9483 19.7459 -1.48035 6.0001 -175.535 -5.95751 -83.1965 11.2841 1.8e-05 -2e-05 -6.47775 -10.7809 66.8649 33 -1.3e-05 1.9e-05 -37.8843 10.5032 -8.44951 25.2 3.2e-05 1.1e-05 -21.0815 26.1618 5.84744 19.7461 -1.48036 -6.00008 179.742 -9.90633 81.1946 11.2841 0 -1e-06 -52.3318 1.81403 -47.936 33.0001 1.6e-05 -1e-06 -108.24 -28.9677 11.6987 25.1998 0.000123 0.000432 -3.76353 8.54199 -2.82686 
66.8334 85.7423 124.179 70.5415 63.29 29.033 0.103456 1.85784 10.5485 -10.72 18.777 -170.524 43.5 -4.2e-05 1e-05 -33 -4.32413 -0.402162 42.3722 1.9e-05 0 73.9753 4.66367 -6.5281 17.3 7.10543e-15 3e-06 21.4546 -1e-06 0.003093 0.103456 1.85782 -10.5485 -28.6288 4.1984 172.888 43.5 -2.7e-05 4e-06 -72.8998 -0.171423 -6.77916 42.3723 0 1e-05 74.7932 -6.17604 9.38035 17.3 -6e-06 1.7e-05 21.4546 -1.9e-05 -0.003116 6.90197 -2.60373 -3e-06 7.39413 0.120389 -0.408477 12.5881 1e-05 8e-06 4.77397 0.24347 -0.808176 12.3432 -1.8e-05 -5e-06 4.45438 0.262542 -0.810712 25.8329 2.3e-05 7e-06 10.94 -5.93575 -0.331559 11.7666 -8e-06 -6e-06 -8.86984 -9.09104 15.5445 19.7459 -1.48035 6.0001 -176.095 -5.02329 -83.5496 11.2841 1.8e-05 -2e-05 -5.97719 -10.9117 67.0708 33 -1.3e-05 1.9e-05 -34.0905 8.43174 -8.54644 25.2 3.2e-05 1.1e-05 -17.4124 25.5443 6.05108 19.7461 -1.48036 -6.00008 179.578 -10.7151 82.2044 11.2841 2.84217e-14 -1e-06 -53.1852 1.02486 -49.0352 33.0001 1.6e-05 -1e-06 -108.323 -28.6103 11.7379 25.1998 0.000123 0.000432 -4.74087 7.26096 -1.36394 
68.0773 86.9091 126.424 76.395 56.7482 22.4169 0.103456 1.85784 10.5485 -6.51468 20.3677 -171.202 43.5 -4.2e-05 1e-05 -30.2641 -6.14801 -1.12999 42.3722 1.9e-05 -1.42109e-14 74.94 2.42044 -3.87723 17.3 0 3e-06 21.4546 -1e-06 0.003093 0.103456 1.85782 -10.5485 -29.2706 3.33325 173.559 43.5 -2.7e-05 4e-06 -72.0439 1.96295 -5.74342 42.3723 7.10543e-15 1e-05 75.4492 -4.3382 4.03689 17.3 -6e-06 1.7e-05 21.4546 -1.9e-05 -0.003116 6.90197 -2.60373 -3e-06 7.45142 0.0699452 -0.367119 12.5881 1e-05 8e-06 4.88909 0.14969 -0.718385 12.3432 -1.8e-05 -5e-06 4.57061 0.176251 -0.715116 25.8329 2.3e-05 7e-06 11.2513 -5.95469 -0.41706 11.7666 -8e-06 -6e-06 -8.37231 -8.49748 15.2673 19.7459 -1.48035 6.0001 -176.599 -4.07335 -84.2544 11.2841 1.8e-05 -2e-05 -7.80907 -9.62207 66.3862 33 -1.3e-05 1.9e-05 -31.4165 7.86751 -8.35694 25.2 3.2e-05 1.1e-05 -14.8921 26.0737 5.89271 19.7461 -1.48036 -6.00008 178.363 -11.397 83.8711 11.2841 0 -1e-06 -55.8092 -2.33108 -50.5567 33.0001 1.6e-05 -1e-06 -105.737 -26.0442 14.7798 25.1998 0.000123 0.000432 -5.63905 4.27963 0.914868 
